<?xml version="1.0" encoding="UTF-8" standalone="no"?>
<svg
   version="1.1"
   viewBox="0 0 250 175"
   id="svg143"
   sodipodi:docname="isometric.svg"
   width="250"
   height="175"
   inkscape:version="1.1.2 (b8e25be833, 2022-02-05)"
   xmlns:inkscape="http://www.inkscape.org/namespaces/inkscape"
   xmlns:sodipodi="http://sodipodi.sourceforge.net/DTD/sodipodi-0.dtd"
   xmlns:xlink="http://www.w3.org/1999/xlink"
   xmlns="http://www.w3.org/2000/svg"
   xmlns:svg="http://www.w3.org/2000/svg">
  <defs
     id="defs147" />
  <sodipodi:namedview
     id="namedview145"
     pagecolor="#ffffff"
     bordercolor="#999999"
     borderopacity="1"
     inkscape:pageshadow="0"
     inkscape:pageopacity="0"
     inkscape:pagecheckerboard="0"
     showgrid="false"
     inkscape:zoom="0.9975"
     inkscape:cx="124.81203"
     inkscape:cy="225.06266"
     inkscape:window-width="1920"
     inkscape:window-height="991"
     inkscape:window-x="-9"
     inkscape:window-y="-9"
     inkscape:window-maximized="1"
     inkscape:current-layer="svg143" />
  <g
     shape-rendering="crispEdges"
     id="g130"
     transform="translate(-275,-175)">
    <g
       id="g8">
      <use
         xlink:href="#SvgjsSymbol1000"
         x="375"
         y="187.5"
         fill="#4f46e5"
         id="use2"
         width="100%"
         height="100%"
         transform="translate(275,175)" />
      <use
         xlink:href="#SvgjsSymbol1001"
         x="375"
         y="187.5"
         fill="#8a73ff"
         id="use4"
         width="100%"
         height="100%"
         transform="translate(275,175)" />
      <use
         xlink:href="#SvgjsSymbol1002"
         x="375"
         y="187.5"
         fill="#001cb2"
         id="use6"
         width="100%"
         height="100%"
         transform="translate(275,175)" />
    </g>
    <g
       id="g16">
      <use
         xlink:href="#SvgjsSymbol1000"
         x="350"
         y="212.5"
         fill="#4f46e5"
         id="use10"
         width="100%"
         height="100%"
         transform="translate(275,175)" />
      <use
         xlink:href="#SvgjsSymbol1001"
         x="350"
         y="212.5"
         fill="#8a73ff"
         id="use12"
         width="100%"
         height="100%"
         transform="translate(275,175)" />
      <use
         xlink:href="#SvgjsSymbol1002"
         x="350"
         y="212.5"
         fill="#001cb2"
         id="use14"
         width="100%"
         height="100%"
         transform="translate(275,175)" />
    </g>
    <g
       id="g24">
      <use
         xlink:href="#SvgjsSymbol1000"
         x="400"
         y="212.5"
         fill="#4f46e5"
         id="use18"
         width="100%"
         height="100%"
         transform="translate(275,175)" />
      <use
         xlink:href="#SvgjsSymbol1001"
         x="400"
         y="212.5"
         fill="#8a73ff"
         id="use20"
         width="100%"
         height="100%"
         transform="translate(275,175)" />
      <use
         xlink:href="#SvgjsSymbol1002"
         x="400"
         y="212.5"
         fill="#001cb2"
         id="use22"
         width="100%"
         height="100%"
         transform="translate(275,175)" />
    </g>
    <g
       id="g32">
      <use
         xlink:href="#SvgjsSymbol1000"
         x="325"
         y="237.5"
         fill="#4f46e5"
         id="use26"
         width="100%"
         height="100%"
         transform="translate(275,175)" />
      <use
         xlink:href="#SvgjsSymbol1001"
         x="325"
         y="237.5"
         fill="#8a73ff"
         id="use28"
         width="100%"
         height="100%"
         transform="translate(275,175)" />
      <use
         xlink:href="#SvgjsSymbol1002"
         x="325"
         y="237.5"
         fill="#001cb2"
         id="use30"
         width="100%"
         height="100%"
         transform="translate(275,175)" />
    </g>
    <g
       id="g40">
      <use
         xlink:href="#SvgjsSymbol1000"
         x="425"
         y="237.5"
         fill="#4f46e5"
         id="use34"
         width="100%"
         height="100%"
         transform="translate(275,175)" />
      <use
         xlink:href="#SvgjsSymbol1001"
         x="425"
         y="237.5"
         fill="#8a73ff"
         id="use36"
         width="100%"
         height="100%"
         transform="translate(275,175)" />
      <use
         xlink:href="#SvgjsSymbol1002"
         x="425"
         y="237.5"
         fill="#001cb2"
         id="use38"
         width="100%"
         height="100%"
         transform="translate(275,175)" />
    </g>
    <g
       id="g48">
      <use
         xlink:href="#SvgjsSymbol1000"
         x="375"
         y="237.5"
         fill="#4f46e5"
         id="use42"
         width="100%"
         height="100%"
         transform="translate(275,175)" />
      <use
         xlink:href="#SvgjsSymbol1001"
         x="375"
         y="237.5"
         fill="#8a73ff"
         id="use44"
         width="100%"
         height="100%"
         transform="translate(275,175)" />
      <use
         xlink:href="#SvgjsSymbol1002"
         x="375"
         y="237.5"
         fill="#001cb2"
         id="use46"
         width="100%"
         height="100%"
         transform="translate(275,175)" />
    </g>
    <g
       id="g56">
      <use
         xlink:href="#SvgjsSymbol1000"
         x="350"
         y="262.5"
         fill="#4f46e5"
         id="use50"
         width="100%"
         height="100%"
         transform="translate(275,175)" />
      <use
         xlink:href="#SvgjsSymbol1001"
         x="350"
         y="262.5"
         fill="#8a73ff"
         id="use52"
         width="100%"
         height="100%"
         transform="translate(275,175)" />
      <use
         xlink:href="#SvgjsSymbol1002"
         x="350"
         y="262.5"
         fill="#001cb2"
         id="use54"
         width="100%"
         height="100%"
         transform="translate(275,175)" />
    </g>
    <g
       id="g64">
      <use
         xlink:href="#SvgjsSymbol1000"
         x="400"
         y="262.5"
         fill="#4f46e5"
         id="use58"
         width="100%"
         height="100%"
         transform="translate(275,175)" />
      <use
         xlink:href="#SvgjsSymbol1001"
         x="400"
         y="262.5"
         fill="#8a73ff"
         id="use60"
         width="100%"
         height="100%"
         transform="translate(275,175)" />
      <use
         xlink:href="#SvgjsSymbol1002"
         x="400"
         y="262.5"
         fill="#001cb2"
         id="use62"
         width="100%"
         height="100%"
         transform="translate(275,175)" />
    </g>
    <g
       id="g72">
      <use
         xlink:href="#SvgjsSymbol1000"
         x="450"
         y="262.5"
         fill="#4f46e5"
         id="use66"
         width="100%"
         height="100%"
         transform="translate(275,175)" />
      <use
         xlink:href="#SvgjsSymbol1001"
         x="450"
         y="262.5"
         fill="#8a73ff"
         id="use68"
         width="100%"
         height="100%"
         transform="translate(275,175)" />
      <use
         xlink:href="#SvgjsSymbol1002"
         x="450"
         y="262.5"
         fill="#001cb2"
         id="use70"
         width="100%"
         height="100%"
         transform="translate(275,175)" />
    </g>
    <g
       id="g80">
      <use
         xlink:href="#SvgjsSymbol1000"
         x="300"
         y="262.5"
         fill="#4f46e5"
         id="use74"
         width="100%"
         height="100%"
         transform="translate(275,175)" />
      <use
         xlink:href="#SvgjsSymbol1001"
         x="300"
         y="262.5"
         fill="#8a73ff"
         id="use76"
         width="100%"
         height="100%"
         transform="translate(275,175)" />
      <use
         xlink:href="#SvgjsSymbol1002"
         x="300"
         y="262.5"
         fill="#001cb2"
         id="use78"
         width="100%"
         height="100%"
         transform="translate(275,175)" />
    </g>
    <g
       id="g88">
      <use
         xlink:href="#SvgjsSymbol1000"
         x="325"
         y="300"
         fill="#4f46e5"
         id="use82"
         width="100%"
         height="100%"
         transform="translate(275,175)" />
      <use
         xlink:href="#SvgjsSymbol1001"
         x="325"
         y="300"
         fill="#8a73ff"
         id="use84"
         width="100%"
         height="100%"
         transform="translate(275,175)" />
      <use
         xlink:href="#SvgjsSymbol1002"
         x="325"
         y="300"
         fill="#001cb2"
         id="use86"
         width="100%"
         height="100%"
         transform="translate(275,175)" />
    </g>
    <g
       id="g96">
      <use
         xlink:href="#SvgjsSymbol1000"
         x="375"
         y="300"
         fill="#4f46e5"
         id="use90"
         width="100%"
         height="100%"
         transform="translate(275,175)" />
      <use
         xlink:href="#SvgjsSymbol1001"
         x="375"
         y="300"
         fill="#8a73ff"
         id="use92"
         width="100%"
         height="100%"
         transform="translate(275,175)" />
      <use
         xlink:href="#SvgjsSymbol1002"
         x="375"
         y="300"
         fill="#001cb2"
         id="use94"
         width="100%"
         height="100%"
         transform="translate(275,175)" />
    </g>
    <g
       id="g104">
      <use
         xlink:href="#SvgjsSymbol1000"
         x="425"
         y="300"
         fill="#4f46e5"
         id="use98"
         width="100%"
         height="100%"
         transform="translate(275,175)" />
      <use
         xlink:href="#SvgjsSymbol1001"
         x="425"
         y="300"
         fill="#8a73ff"
         id="use100"
         width="100%"
         height="100%"
         transform="translate(275,175)" />
      <use
         xlink:href="#SvgjsSymbol1002"
         x="425"
         y="300"
         fill="#001cb2"
         id="use102"
         width="100%"
         height="100%"
         transform="translate(275,175)" />
    </g>
    <g
       id="g112">
      <use
         xlink:href="#SvgjsSymbol1000"
         x="475"
         y="300"
         fill="#4f46e5"
         id="use106"
         width="100%"
         height="100%"
         transform="translate(275,175)" />
      <use
         xlink:href="#SvgjsSymbol1001"
         x="475"
         y="300"
         fill="#8a73ff"
         id="use108"
         width="100%"
         height="100%"
         transform="translate(275,175)" />
      <use
         xlink:href="#SvgjsSymbol1002"
         x="475"
         y="300"
         fill="#001cb2"
         id="use110"
         width="100%"
         height="100%"
         transform="translate(275,175)" />
    </g>
    <g
       id="g120">
      <use
         xlink:href="#SvgjsSymbol1000"
         x="275"
         y="300"
         fill="#4f46e5"
         id="use114"
         width="100%"
         height="100%"
         transform="translate(275,175)" />
      <use
         xlink:href="#SvgjsSymbol1001"
         x="275"
         y="300"
         fill="#8a73ff"
         id="use116"
         width="100%"
         height="100%"
         transform="translate(275,175)" />
      <use
         xlink:href="#SvgjsSymbol1002"
         x="275"
         y="300"
         fill="#001cb2"
         id="use118"
         width="100%"
         height="100%"
         transform="translate(275,175)" />
    </g>
    <g
       id="g128">
      <use
         xlink:href="#SvgjsSymbol1000"
         x="375"
         y="175"
         fill="#4f46e5"
         id="use122"
         width="100%"
         height="100%"
         transform="translate(275,175)" />
      <use
         xlink:href="#SvgjsSymbol1001"
         x="375"
         y="175"
         fill="#8a73ff"
         id="use124"
         width="100%"
         height="100%"
         transform="translate(275,175)" />
      <use
         xlink:href="#SvgjsSymbol1002"
         x="375"
         y="175"
         fill="#001cb2"
         id="use126"
         width="100%"
         height="100%"
         transform="translate(275,175)" />
    </g>
  </g>
  <symbol
     id="SvgjsSymbol1000"
     transform="translate(-275,-175)">
    <polygon
       points="50,12.5 25,25 0,12.5 25,0 "
       id="polygon132" />
  </symbol>
  <symbol
     id="SvgjsSymbol1001"
     transform="translate(-275,-175)">
    <polygon
       points="25,50 0,37.5 0,12.5 25,25 "
       id="polygon135" />
  </symbol>
  <symbol
     id="SvgjsSymbol1002"
     transform="translate(-275,-175)">
    <polygon
       points="50,37.5 25,50 25,25 50,12.5 "
       id="polygon138" />
  </symbol>
  <g
     id="g141"
     transform="translate(-275,-175)" />
</svg>
