<svg xmlns="http://www.w3.org/2000/svg" version="1.1" xmlns:xlink="http://www.w3.org/1999/xlink" xmlns:svgjs="http://svgjs.dev/svgjs" viewBox="0 0 800 800"><g transform="matrix(1,0,0,1,0,0)"><path d="M399.96151003572254 414.4448660091143C399.98532762561746 414.43111739387444 400.01467237438254 414.43111739387444 400.03848996427746 414.4448698581108L400.46151006767224 414.68910022844045C400.4853276575671 414.70284884368033 400.5000000319497 414.7282637670927 400.5000000319497 414.7557648465689V415.24422558722824C400.5000000319497 415.27172666670447 400.4853276575671 415.2971415901169 400.46151006767224 415.3108940543532L400.03848996427746 415.55512442468284C400.01467237438254 415.5688730399228 399.98532762561746 415.5688730399228 399.96151003572254 415.55512057568643L399.53848993232776 415.3108902053568C399.5146723424329 415.2971415901169 399.4999999680503 415.27172666670447 399.4999999680503 415.24422558722824V414.7557648465689C399.4999999680503 414.7282637670927 399.5146723424329 414.70284884368033 399.53848993232776 414.689096379444L399.96151003572254 414.4448660091143Z " stroke-width="0.5" stroke="#4f46e5" fill="none" opacity="0.15" transform="rotate(100, 400, 400)"></path><path d="M399.8419754823811 394.56097172213305C400.66169753459656 394.0877902142931 401.6716459712628 394.0877902142931 402.49136802347834 394.56110419176014L417.05030991531584 402.9666994372722C417.8700319675313 403.4398809451122 418.37500618586444 404.31457789255546 418.37500618586444 405.26107337786243V422.0722638688867C418.37500618586444 423.01875935419366 417.8700319675313 423.89345630163695 417.05030991531584 424.36677027910395L402.49136802347834 432.7723655246161C401.6716459712628 433.24554703245605 400.66169753459656 433.24554703245605 399.8419754823811 432.772233054989L385.2830335905436 424.3666378094769C384.4633115383281 423.89345630163695 383.958337319995 423.01875935419366 383.958337319995 422.0722638688867V405.26107337786243C383.958337319995 404.31457789255546 384.4633115383281 403.4398809451122 385.2830335905436 402.9665669676452L399.8419754823811 394.56097172213305Z " stroke-width="1.7916666666666667" stroke="#4c43dc" fill="none" opacity="0.20833333333333331" transform="rotate(91.66666666666667, 400, 400)"></path><path d="M399.7224256702505 374.6770698057571C401.3380521847866 373.7444554053171 403.328604309354 373.7444554053171 404.9442308238901 374.67733089601484L433.63909450417026 391.24429101670944C435.25472101870633 392.17690541714944 436.24999708099006 393.9008843886236 436.24999708099006 395.7663742797613V428.9002945211505C436.24999708099006 430.76578441228827 435.25472101870633 432.48976338376235 433.63909450417026 433.42263887446006L404.9442308238901 449.98959899515467C403.328604309354 450.9222133955947 401.3380521847866 450.9222133955947 399.7224256702505 449.989337904897L371.0275619899703 433.4223777842024C369.41193547543423 432.48976338376235 368.4166594131505 430.76578441228827 368.4166594131505 428.9002945211505V395.7663742797613C368.4166594131505 393.9008843886236 369.41193547543423 392.17690541714944 371.0275619899703 391.24402992645173L399.7224256702505 374.6770698057571Z " stroke-width="3.0833333333333335" stroke="#4841d2" fill="none" opacity="0.26666666666666666" transform="rotate(83.33333333333333, 400, 400)"></path><path d="M399.60289111690906 354.79316788938127C402.0144220937657 353.40112059634123 404.9855779062343 353.40112059634123 407.39710888309094 354.79355760026965L450.22789435181386 379.52188259614667C452.63942532867054 380.91392988918676 454.12500323490485 383.48719088469176 454.12500323490485 386.27167518166027V435.7283251734144C454.12500323490485 438.5128094703829 452.63942532867054 441.0860704658879 450.22789435181386 442.47850746981624L407.39710888309094 467.2068324656933C404.9855779062343 468.5988797587334 402.0144220937657 468.5988797587334 399.60289111690906 467.20644275480504L356.77210564818614 442.47811775892797C354.36057467132946 441.0860704658879 352.87499676509515 438.5128094703829 352.87499676509515 435.7283251734144V386.27167518166027C352.87499676509515 383.48719088469176 354.36057467132946 380.91392988918676 356.77210564818614 379.5214928852584L399.60289111690906 354.79316788938127Z " stroke-width="4.375" stroke="#453ec8" fill="none" opacity="0.32499999999999996" transform="rotate(75, 400, 400)"></path><path d="M399.48335656356755 334.90926597300546C402.69079200274484 333.05778578736533 406.6425515031146 333.05778578736533 409.8499869422918 334.9097843045244L466.81669419945746 367.79947417558395C470.02412963863475 369.6509543612241 472.0000093888196 373.07349738075993 472.0000093888196 376.7769760835592V442.5563558256783C472.0000093888196 446.2598345284775 470.02412963863475 449.68237754801333 466.81669419945746 451.5343760651724L409.8499869422918 484.42406593623195C406.6425515031146 486.2755461218721 402.69079200274484 486.2755461218721 399.48335656356755 484.42354760471306L342.516649306402 451.5338577336535C339.3092138672247 449.68237754801333 337.33333411703984 446.2598345284775 337.33333411703984 442.5563558256783V376.7769760835592C337.33333411703984 373.07349738075993 339.3092138672247 369.6509543612241 342.516649306402 367.798955844065L399.48335656356755 334.90926597300546Z " stroke-width="5.666666666666667" stroke="#413bbd" fill="none" opacity="0.3833333333333333" transform="rotate(66.66666666666666, 400, 400)"></path><path d="M399.363806751437 315.0253716860241C403.3671466529349 312.71445860778385 408.29950984120575 312.71445860778385 412.3028497427036 315.02601863817364L483.4054787883119 356.07707338441566C487.4088186898098 358.3879864626559 489.8750002839452 362.6598115062226 489.8750002839452 367.2822846148526V449.3843941073366C489.8750002839452 454.0068672159666 487.4088186898098 458.27869225953333 483.4054787883119 460.59025228992306L412.3028497427036 501.6413070361651C408.29950984120575 503.9522201144053 403.3671466529349 503.9522201144053 399.363806751437 501.64066008401556L328.2611777058287 460.58960533777355C324.2578378043308 458.27869225953333 321.79165621019536 454.0068672159666 321.79165621019536 449.3843941073366V367.2822846148526C321.79165621019536 362.6598115062226 324.2578378043308 358.3879864626559 328.2611777058287 356.07642643226615L399.363806751437 315.0253716860241Z " stroke-width="6.958333333333334" stroke="#3d38b2" fill="none" opacity="0.44166666666666665" transform="rotate(58.33333333333333, 400, 400)"></path><path d="M399.24427219809553 295.1414621402537C404.043516561914 292.3711161694134 409.956483438086 292.3711161694134 414.75572780190447 295.14223771303386L499.99427863595554 344.3546573344584C504.79352299977404 347.12500330529866 507.75000643786 352.2461103728962 507.75000643786 357.787577887357V456.21241713020595C507.75000643786 461.75388464466675 504.79352299977404 466.8749917122643 499.99427863595554 469.64611325588476L414.75572780190447 518.8585328773092C409.956483438086 521.6288788481495 404.043516561914 521.6288788481495 399.24427219809553 518.8577573045291L314.0057213640445 469.6453376831046C309.206477000226 466.8749917122643 306.24999356214 461.75388464466675 306.24999356214 456.21241713020595V357.787577887357C306.24999356214 352.2461103728962 309.206477000226 347.12500330529866 314.0057213640445 344.3538817616782L399.24427219809553 295.1414621402537Z " stroke-width="8.25" stroke="#3935a6" fill="none" opacity="0.5" transform="rotate(50, 400, 400)"></path><path d="M399.12472238596496 275.25755259448334C404.71987121210407 272.027773731043 411.61344177617724 272.027773731043 417.2085906023163 275.25845678789415L516.5830632248101 332.6322412845011C522.1782120509491 335.86202014794145 525.6249973329857 341.8324092395698 525.6249973329857 348.29287115986136V463.0404401530753C525.6249973329857 469.50090207336683 522.1782120509491 475.4712911649952 516.5830632248101 478.7019742218464L417.2085906023163 536.0757587184532C411.61344177617724 539.3055375818938 404.71987121210407 539.3055375818938 399.12472238596496 536.0748545250426L299.75024976347123 478.7010700284356C294.1551009373322 475.4712911649952 290.7083156552956 469.50090207336683 290.7083156552956 463.0404401530753V348.29287115986136C290.7083156552956 341.8324092395698 294.1551009373322 335.86202014794145 299.75024976347123 332.6313370910903L399.12472238596496 275.25755259448334Z " stroke-width="9.541666666666668" stroke="#343199" fill="none" opacity="0.5583333333333332" transform="rotate(41.666666666666664, 400, 400)"></path><path d="M399.0052030914125 255.37365067810742C405.3962563798722 251.68443892206702 413.2704306318465 251.68443892206702 419.6614839203061 255.37468349214888L533.1718783312426 320.90983286393833C539.5629316197023 324.5990446199787 543.5000187456894 331.418715735638 543.5000187456894 338.7981720617603V469.86847080533914C543.5000187456894 477.24792713146144 539.5629316197023 484.06759824712066 533.1718783312426 487.7578428172025L419.6614839203061 553.292992188992C413.2704306318465 556.9822039450323 405.3962563798722 556.9822039450323 399.0052030914125 553.2919593749505L285.49480868047607 487.7568100031611C279.1037553920164 484.06759824712066 275.16666826602926 477.24792713146144 275.16666826602926 469.86847080533914V338.7981720617603C275.16666826602926 331.418715735638 279.1037553920164 324.5990446199787 285.49480868047607 320.9088000498969L399.0052030914125 255.37365067810742Z " stroke-width="10.833333333333334" stroke="#2f2d8b" fill="none" opacity="0.6166666666666666" transform="rotate(33.33333333333333, 400, 400)"></path><path d="M398.885653279282 235.48974876173162C406.07261103006226 231.34110411309112 414.92738896993774 231.34110411309112 422.114346720718 235.49091019640366L549.760662920097 309.18742444337556C556.9476206708774 313.33606909201603 561.375009640815 321.00502223170616 561.375009640815 329.3034729636592V476.69650145760306C561.375009640815 484.99495218955605 556.9476206708774 492.6639053292462 549.760662920097 496.81371141255863L422.114346720718 570.5102256595306C414.92738896993774 574.6588703081711 406.07261103006226 574.6588703081711 398.885653279282 570.5090642248585L271.23933707990284 496.81254997788665C264.0523793291226 492.6639053292462 259.62499035918484 484.99495218955605 259.62499035918484 476.69650145760306V329.3034729636592C259.62499035918484 321.00502223170616 264.0523793291226 313.33606909201603 271.23933707990284 309.1862630087035L398.885653279282 235.48974876173162Z " stroke-width="12.125" stroke="#29297b" fill="none" opacity="0.6749999999999999" transform="rotate(25, 400, 400)"></path><path d="M398.7661034671515 215.60584684535576C406.7489656802523 210.99776930411522 416.5843473080289 210.99776930411522 424.56720952112977 215.60713690065847L566.3494475089517 297.46501602281285C574.3323097220525 302.07309356405335 579.2500005359409 310.59132872777434 579.2500005359409 319.8087738655582V483.5245321098669C579.2500005359409 492.7419772476507 574.3323097220525 501.2602124113717 566.3494475089517 505.86958000791486L424.56720952112977 587.7274591300693C416.5843473080289 592.3355366713099 406.7489656802523 592.3355366713099 398.7661034671515 587.7261690747666L256.9838654793296 505.8682899526122C249.00100326622874 501.2602124113717 244.08331245234046 492.7419772476507 244.08331245234046 483.5245321098669V319.8087738655582C244.08331245234046 310.59132872777434 249.00100326622874 302.07309356405335 256.9838654793296 297.4637259675102L398.7661034671515 215.60584684535576Z " stroke-width="13.416666666666668" stroke="#232569" fill="none" opacity="0.7333333333333333" transform="rotate(16.666666666666657, 400, 400)"></path><path d="M398.6465536550209 195.72194492897984C407.4253203304424 190.65443449513924 418.2413056461201 190.65443449513924 427.0200723215416 195.72336360491317L582.9382320978061 285.74260760225C591.7169987732275 290.8101180360906 597.1249914310665 300.17763522384246 597.1249914310665 310.31407476745704V490.35256276213073C597.1249914310665 500.4890023057454 591.7169987732275 509.85651949349705 582.9382320978061 514.925448603271L427.0200723215416 604.9446926006078C418.2413056461201 610.0122030344485 407.4253203304424 610.0122030344485 398.6465536550209 604.9432739246745L242.72839387875632 514.9240299273376C233.94962720333484 509.85651949349705 228.54163454549598 500.4890023057454 228.54163454549598 490.35256276213073V310.31407476745704C228.54163454549598 300.17763522384246 233.94962720333484 290.8101180360906 242.72839387875632 285.74118892631674L398.6465536550209 195.72194492897984Z " stroke-width="14.708333333333334" stroke="#1a1f53" fill="none" opacity="0.7916666666666666" transform="rotate(8.333333333333329, 400, 400)"></path><path d="M398.52703436046846 175.8380735301821C408.10170549821055 170.31113020374147 419.89829450178945 170.31113020374147 429.47296563953154 175.8396208267461L599.5270472042388 274.0202296992654C609.1017183419808 279.5471730257061 615.0000128437703 289.76397223748876 615.0000128437703 300.8194061869341V497.18062393197283C615.0000128437703 508.2360578814181 609.1017183419808 518.4528570932007 599.5270472042388 523.9813477162054L429.47296563953154 622.1619565887247C419.89829450178945 627.6888999151654 408.10170549821055 627.6888999151654 398.52703436046846 622.1604092921607L228.47295279576122 523.9798004196414C218.89828165801913 518.4528570932007 212.99998715622968 508.2360578814181 212.99998715622968 497.18062393197283V300.8194061869341C212.99998715622968 289.76397223748876 218.89828165801913 279.5471730257061 228.47295279576122 274.01868240270153L398.52703436046846 175.8380735301821Z " stroke-width="16" stroke="#0e1935" fill="none" opacity="0.85" transform="rotate(0, 400, 400)"></path></g></svg>